<svg width="300" height="300" viewBox="0 0 300 300" fill="none" xmlns="http://www.w3.org/2000/svg">
<rect width="300" height="300" rx="65.2778" fill="url(#paint0_linear_326_112)"/>
<path d="M250.807 73.3409C251.11 70.6598 248.67 68.4908 246.042 69.1049C205.451 78.5955 171.459 90.2147 153.753 129.662C135.858 169.534 131.587 221.357 157.74 223.36L158.587 223.428C176.435 224.936 198.098 231.151 215.071 236.891L215.703 237.094C228.98 241.128 243.097 231.188 242.95 217.205C242.756 198.693 242.734 175.244 243.472 157.447L243.545 155.743C244.721 129.716 248.631 92.8063 250.469 76.3502L250.807 73.3409ZM215.518 110.961C214.177 125.498 212.925 141.172 212.33 154.333L212.253 156.124C211.668 170.21 211.544 187.398 211.602 202.958C198.991 199.127 184.493 195.383 170.533 193.37C170.496 192.593 170.474 191.729 170.476 190.773C170.5 178.087 174.564 159.894 181.908 143.249L182.26 142.457C189.095 127.231 199.266 118.004 215.518 110.961Z" fill="url(#paint1_linear_326_112)"/>
<path d="M50.0256 73.3409C49.722 70.6598 52.1629 68.4908 54.7903 69.1049C95.3814 78.5955 129.374 90.2147 147.079 129.662C164.974 169.534 169.245 221.357 143.092 223.36L142.245 223.428C124.398 224.936 102.734 231.151 85.7609 236.891L85.1295 237.094C71.8523 241.128 57.7353 231.188 57.8819 217.205C58.076 198.693 58.0984 175.244 57.3608 157.447L57.2873 155.743C56.1111 129.716 52.201 92.8063 50.3638 76.3502L50.0256 73.3409ZM85.3139 110.961C86.6551 125.498 87.9074 141.172 88.5022 154.333L88.5797 156.124C89.1641 170.21 89.288 187.398 89.2308 202.958C101.841 199.127 116.339 195.383 130.3 193.37C130.337 192.593 130.359 191.729 130.357 190.773C130.332 178.087 126.268 159.894 118.924 143.249L118.572 142.457C111.738 127.231 101.566 118.004 85.3139 110.961Z" fill="url(#paint2_linear_326_112)"/>
<defs>
<linearGradient id="paint0_linear_326_112" x1="300" y1="0" x2="0" y2="300" gradientUnits="userSpaceOnUse">
<stop stop-color="#2A2A2A"/>
<stop offset="1" stop-color="#121212"/>
</linearGradient>
<linearGradient id="paint1_linear_326_112" x1="113.775" y1="32.7094" x2="152.671" y2="248.948" gradientUnits="userSpaceOnUse">
<stop stop-color="#6A97E6"/>
<stop offset="1" stop-color="#3C5682"/>
</linearGradient>
<linearGradient id="paint2_linear_326_112" x1="33.7709" y1="52.2386" x2="199.172" y2="178.051" gradientUnits="userSpaceOnUse">
<stop stop-color="#6A97E6"/>
<stop offset="1" stop-color="#3C5682"/>
</linearGradient>
</defs>
</svg>
