<svg width="432" height="432" viewBox="0 0 432 432" fill="none" xmlns="http://www.w3.org/2000/svg">
<path d="M420.948 51.862C421.567 46.3885 416.585 41.9604 411.221 43.2142C328.354 62.5893 258.959 86.3099 222.813 166.842C186.279 248.24 177.561 354.038 230.952 358.126L232.682 358.265C269.117 361.344 313.343 374.031 347.994 385.751L349.283 386.165C376.388 394.401 405.208 374.108 404.909 345.562C404.513 307.768 404.467 259.897 405.973 223.566L406.123 220.086C408.524 166.952 416.507 91.6007 420.257 58.0055L420.948 51.862ZM348.906 128.663C346.169 158.341 343.612 190.34 342.398 217.207L342.239 220.864C341.046 249.621 340.793 284.711 340.91 316.476C315.166 308.654 285.569 301.011 257.068 296.901C256.992 295.315 256.948 293.552 256.951 291.6C257.002 265.702 265.298 228.559 280.291 194.579L281.01 192.964C294.962 161.879 315.728 143.042 348.906 128.663Z" fill="url(#paint0_linear_23239_341)"/>
<path d="M11.0524 51.862C10.4325 46.3885 15.4155 41.9604 20.7794 43.2142C103.646 62.5893 173.041 86.3099 209.187 166.842C245.721 248.24 254.439 354.038 201.048 358.126L199.318 358.265C162.883 361.344 118.657 374.031 84.0061 385.751L82.7171 386.165C55.6116 394.401 26.7917 374.108 27.091 345.562C27.4872 307.768 27.5328 259.897 26.027 223.566L25.877 220.086C23.4758 166.952 15.4934 91.6007 11.7427 58.0055L11.0524 51.862ZM83.0935 128.663C85.8314 158.341 88.3881 190.34 89.6023 217.207L89.7606 220.864C90.9536 249.621 91.2066 284.711 91.0899 316.476C116.834 308.654 146.431 301.011 174.932 296.901C175.008 295.315 175.052 293.552 175.049 291.6C174.998 265.702 166.702 228.559 151.709 194.579L150.99 192.964C137.038 161.879 116.272 143.042 83.0935 128.663Z" fill="url(#paint1_linear_23239_341)"/>
<defs>
<linearGradient id="paint0_linear_23239_341" x1="141.197" y1="-31.0874" x2="220.602" y2="410.365" gradientUnits="userSpaceOnUse">
<stop stop-color="#6A97E6"/>
<stop offset="1" stop-color="#3C5682"/>
</linearGradient>
<linearGradient id="paint1_linear_23239_341" x1="-22.1317" y1="8.78144" x2="315.536" y2="265.629" gradientUnits="userSpaceOnUse">
<stop stop-color="#6A97E6"/>
<stop offset="1" stop-color="#3C5682"/>
</linearGradient>
</defs>
</svg>
