<svg width="300" height="300" viewBox="0 0 300 300" fill="none" xmlns="http://www.w3.org/2000/svg">
<rect width="300" height="300" rx="65.2778" fill="url(#paint0_linear_23273_365)"/>
<path d="M250.415 72.3644C250.408 69.7444 247.992 67.8734 245.447 68.497C199.824 79.6762 158.534 110.284 141.545 154.116C134.093 173.342 134.663 192.987 148.401 207.025C176.497 235.737 199.918 244.152 213.499 246.431L213.68 246.461C221.217 247.626 227.613 242.406 229.492 235.012L229.578 234.656C237.906 198.807 227.062 185.493 232.043 174.496L232.164 174.236C249.163 138.624 250.458 88.2387 250.415 72.3644ZM209.523 119.595C211.602 118.147 214.303 119.901 213.877 122.399C211.62 135.642 208.148 149.127 202.843 160.24C198.297 169.762 197.96 178.715 198.264 184.861C198.497 189.574 199.5 196.469 199.764 198.762C199.885 199.808 200 200.902 200.097 202.057C200.287 204.348 197.849 205.795 195.914 204.555C188.946 200.09 180.758 193.637 171.622 184.301C170.278 182.927 169.585 181.523 169.348 179.208C169.064 176.427 169.485 171.932 171.839 165.858C178.949 147.516 192.317 131.583 209.523 119.595Z" fill="url(#paint1_linear_23273_365)"/>
<path d="M50.417 72.3644C50.4242 69.7444 52.84 67.8734 55.3848 68.497C101.008 79.6762 142.298 110.284 159.287 154.116C166.739 173.342 166.169 192.987 152.431 207.025C124.335 235.737 100.914 244.152 87.3333 246.431L87.1523 246.461C79.6153 247.626 73.2189 242.406 71.3401 235.012L71.2537 234.656C62.9261 198.807 73.7698 185.493 68.7887 174.496L68.6682 174.236C51.6686 138.624 50.3739 88.2387 50.417 72.3644ZM91.3093 119.595C89.2304 118.147 86.529 119.901 86.9548 122.399C89.2123 135.642 92.6844 149.127 97.9893 160.24C102.535 169.762 102.872 178.715 102.568 184.861C102.335 189.574 101.332 196.469 101.068 198.762C100.947 199.808 100.832 200.902 100.735 202.057C100.545 204.348 102.983 205.795 104.918 204.555C111.886 200.09 120.074 193.637 129.21 184.301C130.554 182.927 131.247 181.523 131.484 179.208C131.768 176.427 131.347 171.932 128.993 165.858C121.883 147.516 108.515 131.583 91.3093 119.595Z" fill="url(#paint2_linear_23273_365)"/>
<defs>
<linearGradient id="paint0_linear_23273_365" x1="300" y1="0" x2="0" y2="300" gradientUnits="userSpaceOnUse">
<stop stop-color="#2A2A2A"/>
<stop offset="1" stop-color="#121212"/>
</linearGradient>
<linearGradient id="paint1_linear_23273_365" x1="233.654" y1="95.6929" x2="172.697" y2="239.814" gradientUnits="userSpaceOnUse">
<stop stop-color="#5E86CC"/>
<stop offset="1" stop-color="#304569"/>
</linearGradient>
<linearGradient id="paint2_linear_23273_365" x1="67.1777" y1="95.6929" x2="128.135" y2="239.814" gradientUnits="userSpaceOnUse">
<stop stop-color="#5E86CC"/>
<stop offset="1" stop-color="#304569"/>
</linearGradient>
</defs>
</svg>
