<svg width="432" height="432" viewBox="0 0 432 432" fill="none" xmlns="http://www.w3.org/2000/svg">
<path d="M421.479 41.8239C421.465 36.4529 416.512 32.6174 411.295 33.8956C317.769 56.813 233.123 119.559 198.295 209.415C183.019 248.829 184.189 289.1 212.35 317.878C269.947 376.737 317.96 393.988 345.801 398.661L346.172 398.721C361.623 401.111 374.735 390.409 378.587 375.252L378.764 374.521C395.836 301.031 373.606 273.737 383.817 251.193L384.064 250.662C418.914 177.657 421.568 74.3663 421.479 41.8239ZM337.65 138.648C341.912 135.678 347.45 139.274 346.577 144.395C341.949 171.544 334.831 199.186 323.956 221.969C314.638 241.49 313.948 259.842 314.571 272.443C315.048 282.103 317.103 296.239 317.646 300.94C317.893 303.083 318.13 305.325 318.327 307.695C318.717 312.39 313.719 315.357 309.752 312.815C295.467 303.661 278.683 290.433 259.954 271.294C257.199 268.478 255.778 265.6 255.292 260.853C254.709 255.152 255.574 245.937 260.399 233.486C274.973 195.885 302.378 163.222 337.65 138.648Z" fill="url(#paint0_linear_23272_778)"/>
<path d="M11.4835 41.8239C11.4982 36.4529 16.4507 32.6174 21.6674 33.8956C115.194 56.813 199.839 119.559 234.667 209.415C249.944 248.829 248.774 289.1 220.613 317.878C163.015 376.737 115.003 393.988 87.1619 398.661L86.7907 398.721C71.34 401.111 58.2274 390.409 54.3759 375.252L54.1987 374.521C37.1272 301.031 59.3567 273.737 49.1455 251.193L48.8984 250.662C14.0493 177.657 11.3951 74.3663 11.4835 41.8239ZM95.3127 138.648C91.0509 135.678 85.5131 139.274 86.3859 144.395C91.0139 171.544 98.1316 199.186 109.007 221.969C118.325 241.49 119.015 259.842 118.392 272.443C117.915 282.103 115.86 296.239 115.317 300.94C115.07 303.083 114.833 305.325 114.636 307.695C114.245 312.39 119.244 315.357 123.211 312.815C137.495 303.661 154.279 290.433 173.009 271.294C175.764 268.478 177.185 265.6 177.671 260.853C178.254 255.152 177.389 245.937 172.564 233.486C157.989 195.885 130.585 163.222 95.3127 138.648Z" fill="url(#paint1_linear_23272_778)"/>
<defs>
<linearGradient id="paint0_linear_23272_778" x1="387.12" y1="89.6472" x2="262.158" y2="385.095" gradientUnits="userSpaceOnUse">
<stop stop-color="#6A97E5"/>
<stop offset="1" stop-color="#3C5682"/>
</linearGradient>
<linearGradient id="paint1_linear_23272_778" x1="45.8429" y1="89.6472" x2="170.805" y2="385.095" gradientUnits="userSpaceOnUse">
<stop stop-color="#6A97E5"/>
<stop offset="1" stop-color="#3C5682"/>
</linearGradient>
</defs>
</svg>
