<svg width="300" height="300" viewBox="0 0 300 300" fill="none" xmlns="http://www.w3.org/2000/svg">
<rect width="300" height="300" rx="65.2778" fill="url(#paint0_linear_326_112)"/>
<path d="M250.413 75.5993C250.554 73.3481 248.49 71.5935 246.293 72.1033C202.654 82.2292 166.052 94.3751 147.08 136.645C128.098 178.937 128.048 220.766 151.309 236.031L151.889 236.402C175.829 251.283 215.835 226.003 233.453 213.186L235.099 211.977C239.606 208.636 242.271 203.489 242.761 197.916L242.802 197.375L250.413 75.5993ZM209.589 187.074C209.523 188.137 208.973 189.112 208.091 189.71C200.989 194.518 192.09 199.869 183.31 203.477C178.651 205.391 174.532 206.451 171.614 206.911C170.321 207.115 169.052 206.454 168.615 205.22C167.945 203.328 167.27 200.267 167.128 195.474C166.799 184.342 169.835 168.745 177.536 151.313L177.907 150.481C184.651 135.455 194.471 125.991 209.878 118.743C211.744 117.866 213.823 119.335 213.695 121.392L209.589 187.074Z" fill="url(#paint1_linear_326_112)"/>
<path d="M49.5869 75.5993C49.4462 73.3481 51.5095 71.5935 53.7068 72.1033C97.3456 82.2292 133.948 94.3751 152.92 136.645C171.902 178.937 171.952 220.766 148.691 236.031L148.111 236.402C124.171 251.283 84.1644 226.003 66.5472 213.186L64.9006 211.977C60.3941 208.636 57.7292 203.489 57.2387 197.916L57.198 197.375L49.5869 75.5993ZM90.4315 187.41C90.4847 188.261 90.9235 189.04 91.6284 189.519C98.7758 194.376 107.794 199.822 116.69 203.477C121.349 205.391 125.468 206.451 128.386 206.911C129.679 207.115 130.947 206.454 131.385 205.22C132.055 203.328 132.729 200.267 132.871 195.474C133.201 184.342 130.165 168.745 122.464 151.313L122.093 150.481C115.349 135.455 105.528 125.991 90.1214 118.743C88.2562 117.866 86.1764 119.335 86.305 121.392L90.4315 187.41Z" fill="url(#paint2_linear_326_112)"/>
<defs>
<linearGradient id="paint0_linear_326_112" x1="300" y1="0" x2="0" y2="300" gradientUnits="userSpaceOnUse">
<stop stop-color="#2A2A2A"/>
<stop offset="1" stop-color="#121212"/>
</linearGradient>
<linearGradient id="paint1_linear_326_112" x1="197.132" y1="72.5316" x2="203.314" y2="252.164" gradientUnits="userSpaceOnUse">
<stop stop-color="#587EBF"/>
<stop offset="1" stop-color="#2A3C5C"/>
</linearGradient>
<linearGradient id="paint2_linear_326_112" x1="32.7326" y1="118.104" x2="186.868" y2="121.021" gradientUnits="userSpaceOnUse">
<stop stop-color="#587EBF"/>
<stop offset="1" stop-color="#2A3C5C"/>
</linearGradient>
</defs>
</svg>
