<svg width="372" height="372" viewBox="0 0 372 372" fill="none" xmlns="http://www.w3.org/2000/svg">
<rect width="372" height="372" rx="80.9444" fill="url(#paint0_linear_326_112)"/>
<path d="M140.33 241.228C140.33 249.23 138.471 256.585 134.753 263.294C131.034 269.922 125.862 275.216 119.234 279.177C112.525 283.056 105.008 284.996 96.6828 284.996C88.3576 284.996 80.881 283.056 74.2532 279.177C67.6253 275.216 62.4524 269.922 58.7343 263.294C55.0163 256.585 53.1572 249.23 53.1572 241.228C53.1572 233.226 55.0163 225.911 58.7343 219.284C62.4524 212.575 67.6253 207.321 74.2532 203.522C80.881 199.643 88.3576 197.703 96.6828 197.703C105.008 197.703 112.525 199.643 119.234 203.522C125.862 207.402 131.034 212.656 134.753 219.284C138.471 225.911 140.33 233.226 140.33 241.228ZM121.416 241.228C121.416 234.439 119.153 229.023 114.627 224.982C110.1 220.86 104.119 218.799 96.6828 218.799C89.1659 218.799 83.1846 220.86 78.7391 224.982C74.2128 229.023 71.9496 234.439 71.9496 241.228C71.9496 248.099 74.1724 253.595 78.6179 257.717C83.0634 261.758 89.085 263.779 96.6828 263.779C104.2 263.779 110.221 261.758 114.748 257.717C119.193 253.595 121.416 248.099 121.416 241.228Z" fill="url(#paint1_linear_326_112)"/>
<path d="M96.8044 175.072C88.3513 175.072 80.833 173.243 74.2493 169.585C67.5844 165.928 62.4231 160.848 58.7655 154.345C55.0267 147.762 53.1572 140.325 53.1572 132.034C53.1572 121.874 55.8395 113.177 61.2039 105.943C66.5684 98.7095 73.8835 93.8734 83.1494 91.435V114.356C79.5731 116.063 76.8503 118.501 74.9808 121.671C73.1114 124.76 72.1767 128.295 72.1767 132.278C72.1767 138.699 74.4119 143.901 78.8822 147.884C83.3526 151.866 89.3267 153.858 96.8044 153.858C104.282 153.858 110.256 151.866 114.727 147.884C119.197 143.901 121.432 138.699 121.432 132.278C121.432 128.295 120.497 124.76 118.628 121.671C116.759 118.501 114.036 116.063 110.459 114.356V91.435C119.725 93.8734 127.04 98.7095 132.405 105.943C137.688 113.177 140.33 121.874 140.33 132.034C140.33 140.325 138.501 147.762 134.843 154.345C131.104 160.848 125.943 165.928 119.36 169.585C112.776 173.243 105.257 175.072 96.8044 175.072Z" fill="url(#paint2_linear_326_112)"/>
<path d="M229.065 101.397C247.025 101.397 262.72 104.957 276.149 112.076C289.578 119.195 299.934 129.227 307.215 142.171C314.657 154.953 318.379 169.758 318.379 186.585C318.379 203.25 314.657 218.055 307.215 230.999C299.934 243.943 289.498 253.975 275.906 261.094C262.477 268.213 246.863 271.773 229.065 271.773H165.235V101.397H229.065ZM226.396 235.853C242.09 235.853 254.306 231.565 263.043 222.99C271.78 214.415 276.149 202.28 276.149 186.585C276.149 170.89 271.78 158.675 263.043 149.937C254.306 141.2 242.09 136.832 226.396 136.832H206.737V235.853H226.396Z" fill="url(#paint3_linear_326_112)"/>
<defs>
<linearGradient id="paint0_linear_326_112" x1="372" y1="0" x2="0" y2="372" gradientUnits="userSpaceOnUse">
<stop stop-color="#2A2A2A"/>
<stop offset="1" stop-color="#121212"/>
</linearGradient>
<linearGradient id="paint1_linear_326_112" x1="140.33" y1="197.703" x2="116.818" y2="299.569" gradientUnits="userSpaceOnUse">
<stop stop-color="#587EBF"/>
<stop offset="1" stop-color="#2A3C5C"/>
</linearGradient>
<linearGradient id="paint2_linear_326_112" x1="140.33" y1="91.435" x2="111.742" y2="191.949" gradientUnits="userSpaceOnUse">
<stop stop-color="#587EBF"/>
<stop offset="1" stop-color="#2A3C5C"/>
</linearGradient>
<linearGradient id="paint3_linear_326_112" x1="317.976" y1="101.565" x2="268.027" y2="298.193" gradientUnits="userSpaceOnUse">
<stop stop-color="#587EBF"/>
<stop offset="1" stop-color="#2A3C5C"/>
</linearGradient>
</defs>
</svg>
